<svg width="24" height="24" viewBox="0 0 24 24" fill="none" xmlns="http://www.w3.org/2000/svg">
<path fill-rule="evenodd" clip-rule="evenodd" d="M12 3C10.3431 3 9 4.34315 9 6V9H15V6C15 4.34315 13.6569 3 12 3ZM16.5 9V6C16.5 3.51472 14.4853 1.5 12 1.5C9.51472 1.5 7.5 3.51472 7.5 6V9C5.84315 9 4.5 10.3431 4.5 12V19.5C4.5 21.1569 5.84315 22.5 7.5 22.5H16.5C18.1569 22.5 19.5 21.1569 19.5 19.5V12C19.5 10.3431 18.1569 9 16.5 9ZM7.5 10.5C6.67157 10.5 6 11.1716 6 12V19.5C6 20.3284 6.67157 21 7.5 21H16.5C17.3284 21 18 20.3284 18 19.5V12C18 11.1716 17.3284 10.5 16.5 10.5H7.5Z" fill="white"/>
<path fill-rule="evenodd" clip-rule="evenodd" d="M5.25 12V19.5C5.25 20.7426 6.25736 21.75 7.5 21.75H16.5C17.7426 21.75 18.75 20.7426 18.75 19.5V12C18.75 10.7574 17.7426 9.75 16.5 9.75H15.75H8.25H7.5C6.25736 9.75 5.25 10.7574 5.25 12ZM9.75 14.25C9.75 13.0074 10.7574 12 12 12C13.2426 12 14.25 13.0074 14.25 14.25C14.25 15.2297 13.6239 16.0631 12.75 16.372V18.75C12.75 19.1642 12.4142 19.5 12 19.5C11.5858 19.5 11.25 19.1642 11.25 18.75V16.372C10.3761 16.0631 9.75 15.2297 9.75 14.25Z" fill="white"/>
</svg>
