<svg width="48" height="48" viewBox="0 0 48 48" fill="none" xmlns="http://www.w3.org/2000/svg">
<path fill-rule="evenodd" clip-rule="evenodd" d="M24 48C37.2548 48 48 37.2548 48 24C48 10.7452 37.2548 0 24 0C10.7452 0 0 10.7452 0 24C0 37.2548 10.7452 48 24 48ZM25.4999 26.7099V35.9999H21.7499V26.7199H18.6299V23.0899H21.7499V20.4199C21.7499 17.3199 23.6399 15.6299 26.4199 15.6299C27.3499 15.6299 28.2799 15.6299 29.2099 15.7699V18.9999H27.2999C25.7899 18.9999 25.4999 19.7199 25.4999 20.7699V23.0799H29.0999L28.6299 26.7099H25.4999Z" fill="#A8B4C5"/>
</svg>
