<svg width="24" height="24" viewBox="0 0 24 24" fill="none" xmlns="http://www.w3.org/2000/svg">
<path fill-rule="evenodd" clip-rule="evenodd" d="M11.25 3.75C11.25 2.50736 12.2574 1.5 13.5 1.5C14.7426 1.5 15.75 2.50736 15.75 3.75L15.75 7.5H20.25C21.4926 7.5 22.5 8.50736 22.5 9.75C22.5 10.3263 22.2834 10.8519 21.9271 11.25C22.2834 11.6481 22.5 12.1737 22.5 12.75C22.5 13.5467 22.0859 14.2467 21.4613 14.6465C21.6451 14.9725 21.75 15.349 21.75 15.75C21.75 16.5467 21.3359 17.2467 20.7113 17.6465C20.8951 17.9725 21 18.349 21 18.75C21 19.9926 19.9926 21 18.75 21H12.6596C11.2268 21 9.87927 20.439 8.87927 19.479C8.5764 20.3638 7.73749 21 6.75 21H3.75C2.50736 21 1.5 19.9926 1.5 18.75V9.75C1.5 8.50736 2.50736 7.5 3.75 7.5H6.75C7.83489 7.5 8.74045 8.26783 8.95288 9.28971C9.09608 9.08154 9.24927 8.87934 9.41218 8.68385L10.7285 7.10427C11.0655 6.69991 11.25 6.19021 11.25 5.66385V3.75ZM9 13.9654L9 16.8055C9 16.9814 9.04096 17.1549 9.11963 17.3122C9.79004 18.653 11.1605 19.5 12.6596 19.5H18.75C19.1642 19.5 19.5 19.1642 19.5 18.75C19.5 18.3358 19.1642 18 18.75 18C18.3358 18 18 17.6642 18 17.25C18 16.8358 18.3358 16.5 18.75 16.5H19.5C19.9142 16.5 20.25 16.1642 20.25 15.75C20.25 15.3358 19.9142 15 19.5 15C19.0858 15 18.75 14.6642 18.75 14.25C18.75 13.8358 19.0858 13.5 19.5 13.5H20.25C20.6642 13.5 21 13.1642 21 12.75C21 12.3358 20.6642 12 20.25 12H19.5C19.0858 12 18.75 11.6642 18.75 11.25C18.75 10.8358 19.0858 10.5 19.5 10.5H20.25C20.6642 10.5 21 10.1642 21 9.75C21 9.33579 20.6642 9 20.25 9H15C14.8011 9 14.6103 8.92098 14.4697 8.78033C14.329 8.63968 14.25 8.44891 14.25 8.25L14.25 3.75C14.25 3.33579 13.9142 3 13.5 3C13.0858 3 12.75 3.33579 12.75 3.75V5.66385C12.75 6.54111 12.4424 7.39061 11.8808 8.06454L10.5645 9.64413C9.55361 10.8572 9 12.3863 9 13.9654ZM7.5 16.8055L7.5 9.75C7.5 9.33579 7.16421 9 6.75 9H3.75C3.33579 9 3 9.33579 3 9.75V18.75C3 19.1642 3.33579 19.5 3.75 19.5H6.75C7.16421 19.5 7.5 19.1642 7.5 18.75L7.5 16.8055C7.5 16.8059 7.5 16.805 7.5 16.8055Z" fill="#636AE6"/>
</svg>
