<svg width="48" height="48" viewBox="0 0 48 48" fill="none" xmlns="http://www.w3.org/2000/svg">
<path fill-rule="evenodd" clip-rule="evenodd" d="M24 48C37.2548 48 48 37.2548 48 24C48 10.7452 37.2548 0 24 0C10.7452 0 0 10.7452 0 24C0 37.2548 10.7452 48 24 48ZM15.3 17.3227C15.3 18.5277 16.3 19.4314 17.4 19.4314C18.5 19.4314 19.5 18.5277 19.5 17.3227C19.5 16.1176 18.5 15.2139 17.4 15.2139C16.2 15.2139 15.3 16.1176 15.3 17.3227ZM15.6 32.4858H19.1V21.0381H15.6V32.4858ZM32.6 32.3854H29V26.762C29 25.4565 29 23.649 27.1 23.649C25.2001 23.649 25 25.1553 25 26.5611V32.285H21.5V21.0381H24.8V22.5444H24.9C25.4 21.6406 26.6 20.6365 28.3 20.6365C31.9 20.6365 32.6 23.0465 32.6 26.1595V32.3854Z" fill="#A8B4C5"/>
</svg>
