<svg width="30" height="34" viewBox="0 0 30 34" fill="none" xmlns="http://www.w3.org/2000/svg">
<path fill-rule="evenodd" clip-rule="evenodd" d="M17.3053 3.68415C18.0455 1.48401 20.1233 0 22.4638 0H24.5625C27.5655 0 30 2.41228 30 5.38798V24.3388C30 27.3145 27.5655 29.7268 24.5625 29.7268H12.8928L12.6947 30.3159C11.9545 32.516 9.87665 34 7.53619 34H5.4375C2.43445 34 0 31.5877 0 28.612V9.6612C0 6.68551 2.43445 4.27322 5.4375 4.27322H17.1072L17.3053 3.68415ZM15.7322 8.36066H5.4375C4.71263 8.36066 4.125 8.94293 4.125 9.6612V28.612C4.125 29.3303 4.71263 29.9126 5.4375 29.9126H7.53619C8.10113 29.9126 8.60269 29.5544 8.78133 29.0233L15.7322 8.36066ZM14.2678 25.6393H24.5625C25.2874 25.6393 25.875 25.0571 25.875 24.3388V5.38798C25.875 4.66971 25.2874 4.08743 24.5625 4.08743H22.4638C21.8989 4.08743 21.3973 4.44564 21.2187 4.97671L14.2678 25.6393Z" fill="#183455"/>
</svg>
