<svg width="82" height="90" viewBox="0 0 82 90" fill="none" xmlns="http://www.w3.org/2000/svg">
<g filter="url(#filter0_d_528_4437)">
<path d="M48.9916 50.8643C53.7786 48.0991 57 42.9257 57 37C57 28.1634 49.8366 21 41 21C32.1634 21 25 28.1634 25 37C25 42.9257 28.2214 48.0991 33.0084 50.8643L36.7321 54.0561C38.2015 55.3156 39.2063 57.0313 39.5858 58.929C39.895 60.4748 42.105 60.4748 42.4142 58.929C42.7937 57.0313 43.7985 55.3156 45.2679 54.0561L48.9916 50.8643Z" fill="#E8EDF6"/>
<g filter="url(#filter1_d_528_4437)">
<circle cx="41" cy="37" r="8" fill="#636AE6"/>
</g>
</g>
<defs>
<filter id="filter0_d_528_4437" x="0" y="0" width="82" height="89.0889" filterUnits="userSpaceOnUse" color-interpolation-filters="sRGB">
<feFlood flood-opacity="0" result="BackgroundImageFix"/>
<feColorMatrix in="SourceAlpha" type="matrix" values="0 0 0 0 0 0 0 0 0 0 0 0 0 0 0 0 0 0 127 0" result="hardAlpha"/>
<feOffset dy="4"/>
<feGaussianBlur stdDeviation="12.5"/>
<feComposite in2="hardAlpha" operator="out"/>
<feColorMatrix type="matrix" values="0 0 0 0 0 0 0 0 0 0 0 0 0 0 0 0 0 0 0.1 0"/>
<feBlend mode="normal" in2="BackgroundImageFix" result="effect1_dropShadow_528_4437"/>
<feBlend mode="normal" in="SourceGraphic" in2="effect1_dropShadow_528_4437" result="shape"/>
</filter>
<filter id="filter1_d_528_4437" x="29" y="29" width="24" height="24" filterUnits="userSpaceOnUse" color-interpolation-filters="sRGB">
<feFlood flood-opacity="0" result="BackgroundImageFix"/>
<feColorMatrix in="SourceAlpha" type="matrix" values="0 0 0 0 0 0 0 0 0 0 0 0 0 0 0 0 0 0 127 0" result="hardAlpha"/>
<feOffset dy="4"/>
<feGaussianBlur stdDeviation="2"/>
<feComposite in2="hardAlpha" operator="out"/>
<feColorMatrix type="matrix" values="0 0 0 0 0 0 0 0 0 0 0 0 0 0 0 0 0 0 0.1 0"/>
<feBlend mode="normal" in2="BackgroundImageFix" result="effect1_dropShadow_528_4437"/>
<feBlend mode="normal" in="SourceGraphic" in2="effect1_dropShadow_528_4437" result="shape"/>
</filter>
</defs>
</svg>
