<svg width="96" height="23" viewBox="0 0 96 23" fill="none" xmlns="http://www.w3.org/2000/svg">
<g clip-path="url(#clip0_366_5570)">
<path d="M75.697 4.25293C74.3872 4.25337 73.1069 4.63907 72.0181 5.36122C70.9294 6.08338 70.0812 7.10955 69.5807 8.30988C69.0805 9.51001 68.9501 10.8302 69.206 12.1038C69.462 13.3774 70.0928 14.5471 71.0188 15.4654C71.7892 16.2292 72.7377 16.7927 73.7802 17.1061C74.8227 17.4194 75.9271 17.473 76.9955 17.2619C78.0639 17.0509 79.0633 16.5818 79.9051 15.8962C80.747 15.2107 81.4053 14.3298 81.8218 13.3316C82.2383 12.3334 82.4 11.2488 82.2927 10.1738C82.1854 9.09883 81.8124 8.06669 81.2067 7.16884C80.601 6.27098 79.7812 5.53515 78.8202 5.02652C77.8591 4.51789 76.7864 4.25218 75.697 4.25293ZM75.697 14.4681C75.1532 14.4677 74.6162 14.3478 74.1248 14.117C73.6333 13.8861 73.1995 13.5501 72.8547 13.1331C72.5099 12.7161 72.2626 12.2285 72.1307 11.7054C71.9987 11.1822 71.9853 10.6366 72.0915 10.1077C72.2034 9.5487 72.4457 9.02344 72.7991 8.57405C73.1526 8.12465 73.6073 7.76362 74.1268 7.51989C74.6463 7.27616 75.2162 7.15651 75.7907 7.17054C76.3653 7.18457 76.9285 7.33189 77.4353 7.60068C77.9421 7.86948 78.3783 8.25227 78.709 8.71837C79.0397 9.18448 79.2557 9.72093 79.3396 10.2847C79.4236 10.8485 79.3731 11.424 79.1924 11.9649C79.0116 12.5059 78.7055 12.9974 78.2987 13.3999C77.6084 14.0835 76.6726 14.4673 75.697 14.4668V14.4681Z" fill="#FDD314"/>
<path d="M13.8396 9.8491C14.3945 10.6026 14.6799 11.5181 14.6507 12.4507C14.6754 13.0981 14.5432 13.7421 14.2652 14.3284C13.9872 14.9148 13.5714 15.4266 13.0529 15.8208C11.7879 16.7092 10.2569 17.147 8.70903 17.0628H0.642456V0.222957H8.47C9.95824 0.141766 11.4315 0.553507 12.6579 1.3934C13.1569 1.76413 13.5577 2.24945 13.8258 2.80765C14.0939 3.36585 14.2213 3.98025 14.1971 4.59807C14.2192 5.42333 13.9739 6.23388 13.4973 6.91079C13.0208 7.5877 12.338 8.09533 11.5491 8.35921C12.4574 8.59171 13.2627 9.11554 13.8396 9.8491ZM4.26919 7.08207H7.8489C8.59384 7.13358 9.33743 6.96459 9.98538 6.59651C10.2217 6.42624 10.4104 6.199 10.5335 5.93628C10.6566 5.67357 10.7101 5.38406 10.689 5.09512C10.7109 4.80097 10.658 4.50607 10.535 4.23748C10.4121 3.9689 10.2231 3.73524 9.98538 3.55796C9.34027 3.18196 8.59531 3.00887 7.8489 3.06154H4.26919V7.08207ZM10.4622 13.7163C10.6988 13.5206 10.8843 13.271 11.0028 12.9889C11.1212 12.7068 11.1692 12.4005 11.1425 12.0961C11.1697 11.7864 11.1221 11.4748 11.0038 11.187C10.8855 10.8991 10.6998 10.6433 10.4622 10.4407C9.80882 10.041 9.04378 9.85882 8.27864 9.92065H4.26919V14.2248H8.27864C9.04306 14.2864 9.80769 14.1085 10.4647 13.7163H10.4622ZM24.6122 5.02357L24.5883 8.28765C24.0364 8.02772 23.4339 7.89035 22.823 7.88515C22.4254 7.85769 22.0265 7.91157 21.6509 8.04346C21.2752 8.17535 20.931 8.38243 20.6395 8.65182C20.3778 8.94179 20.1767 9.28027 20.0476 9.64772C19.9186 10.0152 19.8642 10.4043 19.8876 10.7927V17.0602H16.2995C16.2995 17.0602 16.3111 6.11415 16.3033 5.06893H19.4817L19.7207 7.12615C19.9897 6.40912 20.4874 5.79874 21.1381 5.38773C21.7924 4.9828 22.5505 4.7734 23.3216 4.78462C23.7643 4.77185 24.2043 4.85362 24.6122 5.02357ZM26.2564 17.0628V5.07148H29.86V17.0628H26.2564ZM64.6313 7.74587V12.4053C64.6081 12.6709 64.6429 12.9383 64.7336 13.1893C64.8242 13.4402 64.9684 13.6688 65.1564 13.8594C65.5354 14.1773 66.0212 14.342 66.5171 14.3207C66.9202 14.3134 67.3209 14.2577 67.7104 14.1546V16.9229C67.0446 17.159 66.3406 17.2712 65.6338 17.2538C65.0061 17.2963 64.3765 17.2066 63.7863 16.9905C63.1961 16.7745 62.6587 16.437 62.2094 16.0003C61.3709 15.0213 60.9476 13.7582 61.0284 12.4762V7.74843H58.7373V5.07596H61.0284V2.26101L64.6319 1.10207V5.07596H67.711V7.74843L64.6313 7.74587ZM53.5165 4.76418C52.7479 4.75463 51.9877 4.9247 51.2976 5.2606C50.6309 5.59047 50.0631 6.08787 49.6508 6.70321V1.90132L46.0472 3.06026V17.0628H49.6508V10.3455C49.6122 9.60064 49.8694 8.87041 50.3672 8.31129C50.6128 8.0577 50.9101 7.85899 51.2394 7.72843C51.5686 7.59787 51.9221 7.53848 52.2763 7.55421C52.5495 7.53113 52.8244 7.57148 53.0792 7.67206C53.3339 7.77265 53.5615 7.9307 53.744 8.13368C54.0984 8.67721 54.2619 9.32154 54.2092 9.96665V17.0622H57.8127V9.80054C57.8127 6.44254 56.3804 4.76354 53.5165 4.76354V4.76418ZM95.9035 9.80373V17.0647H92.2999V9.96921C92.3526 9.32409 92.1891 8.67976 91.8347 8.13623C91.6525 7.93301 91.4249 7.7748 91.1701 7.6742C90.9153 7.5736 90.6403 7.53338 90.367 7.55676C90.0128 7.54099 89.6593 7.60037 89.3301 7.73093C89.0009 7.86149 88.7035 8.06022 88.458 8.31385C87.9606 8.87291 87.7036 9.60286 87.7422 10.3474V17.0647H84.1386C84.1386 17.0647 84.1083 6.08029 84.1083 5.0734H87.3363L87.5747 6.96515C87.9774 6.28126 88.5585 5.7176 89.2569 5.33343C89.9783 4.94753 90.7877 4.75195 91.6073 4.76546C94.4712 4.76482 95.9035 6.44382 95.9035 9.80373ZM40.7969 5.07212V6.77476C40.4201 6.14981 39.8744 5.6419 39.2216 5.30851C38.5156 4.94051 37.728 4.7534 36.9305 4.76418C35.9526 4.73767 34.9879 4.99276 34.1532 5.49858C33.3184 6.0044 32.6494 6.73927 32.2271 7.61426C31.7711 8.5971 31.535 9.66615 31.535 10.748C31.535 11.8299 31.7711 12.8989 32.2271 13.8818C32.6496 14.7567 33.3186 15.4914 34.1533 15.9972C34.988 16.503 35.9526 16.7582 36.9305 16.7318C37.6937 16.7333 38.4455 16.5485 39.1197 16.1938C39.7939 15.839 40.3696 15.3252 40.7962 14.6976V16.7791C40.8279 17.1762 40.7764 17.5756 40.645 17.952C40.5136 18.3285 40.3052 18.6739 40.0327 18.9667C39.3841 19.4947 38.5544 19.7532 37.7178 19.688C36.2042 19.6685 34.7165 19.2964 33.3746 18.6019L32.8257 21.2513C34.3791 22.0239 36.1003 22.4057 37.8376 22.363C39.9702 22.363 41.5926 21.8666 42.7066 20.8731C43.8205 19.8797 44.3772 18.4294 44.3766 16.521V5.0734L40.7969 5.07276V5.07212ZM37.7513 13.8249C37.1575 13.8083 36.5818 13.6186 36.0962 13.2793C35.6105 12.9401 35.2365 12.4665 35.0208 11.9177C34.8051 11.3688 34.7574 10.7691 34.8835 10.1935C35.0096 9.61788 35.304 9.0919 35.73 8.68129C36.1559 8.27069 36.6944 7.99367 37.2782 7.88487C37.862 7.77607 38.4652 7.84031 39.0124 8.06956C39.5596 8.29881 40.0265 8.68291 40.3548 9.17384C40.683 9.66477 40.8581 10.2407 40.8581 10.8298C40.8457 11.6355 40.5111 12.4033 39.9279 12.9644C39.3447 13.5254 38.5606 13.8338 37.7481 13.8217L37.7513 13.8249Z" fill="black"/>
<path d="M75.6989 4.34796C74.8234 4.33961 73.9549 4.50342 73.1436 4.82992C72.3323 5.15642 71.5944 5.63913 70.9724 6.25016C70.3504 6.86118 69.8567 7.58839 69.5199 8.38976C69.183 9.19113 69.0097 10.0508 69.0099 10.9189C69.0101 11.7871 69.1838 12.6467 69.5211 13.4479C69.8583 14.2491 70.3524 14.9761 70.9747 15.5868C71.597 16.1975 72.3352 16.6799 73.1466 17.006C73.958 17.3321 74.8266 17.4955 75.7021 17.4867C77.4478 17.4692 79.1161 16.7692 80.3441 15.5387C81.5722 14.3083 82.2609 12.6469 82.2605 10.9158C82.26 9.18458 81.5705 7.52354 80.3419 6.2937C79.1132 5.06385 77.4446 4.36461 75.6989 4.34796ZM75.6989 14.5632C74.723 14.5632 73.7871 14.1787 73.097 13.4945C72.407 12.8102 72.0193 11.8822 72.0193 10.9145C72.0193 9.94677 72.407 9.01871 73.097 8.33444C73.7871 7.65018 74.723 7.26577 75.6989 7.26577C76.6748 7.26577 77.6107 7.65018 78.3007 8.33444C78.9908 9.01871 79.3785 9.94677 79.3785 10.9145C79.3785 11.8822 78.9908 12.8102 78.3007 13.4945C77.6107 14.1787 76.6748 14.5632 75.6989 14.5632Z" fill="#FDD314"/>
</g>
<defs>
<clipPath id="clip0_366_5570">
<rect width="96" height="23" fill="white"/>
</clipPath>
</defs>
</svg>
