<svg width="1423" height="346" viewBox="0 0 1423 346" fill="none" xmlns="http://www.w3.org/2000/svg">
<path d="M4 306.568L51.4243 328.627C89.7812 346.468 134.334 345.021 171.452 324.727L174.035 323.315C205.721 305.991 243.298 303.025 277.309 315.164V315.164C305.988 325.4 337.396 324.955 365.774 313.91L409.532 296.878C476.822 270.687 548.946 259.232 621.04 263.287L727.034 269.248C810.195 273.925 891.327 242.475 949.608 182.969L965.165 167.085C1000.23 131.282 1046.27 108.25 1095.95 101.663L1119.77 98.5052C1154.67 93.877 1186.97 77.549 1211.39 52.1888V52.1888C1251.23 10.8274 1310.6 -5.23474 1365.86 10.4038L1419 25.4456" stroke="#636AE6" stroke-width="8" stroke-linecap="round" stroke-linejoin="round"/>
</svg>
