<svg width="24" height="24" viewBox="0 0 24 24" fill="none" xmlns="http://www.w3.org/2000/svg">
<path fill-rule="evenodd" clip-rule="evenodd" d="M5.25 7.5C4.83579 7.5 4.5 7.83579 4.5 8.25V20.25C4.5 20.6642 4.83579 21 5.25 21H14.25C14.6642 21 15 20.6642 15 20.25V13.5H11.25C10.0074 13.5 9 12.4926 9 11.25V7.5H5.25ZM10.5 8.56066L13.9393 12H11.25C10.8358 12 10.5 11.6642 10.5 11.25V8.56066ZM3 8.25C3 7.00736 4.00736 6 5.25 6H9.75C9.94891 6 10.1397 6.07902 10.2803 6.21967L16.2803 12.2197C16.421 12.3603 16.5 12.5511 16.5 12.75V20.25C16.5 21.4926 15.4926 22.5 14.25 22.5H5.25C4.00736 22.5 3 21.4926 3 20.25V8.25Z" fill="#636AE6"/>
<path fill-rule="evenodd" clip-rule="evenodd" d="M7.5 3.75C7.5 2.50736 8.50736 1.5 9.75 1.5H14.25C14.4489 1.5 14.6397 1.57902 14.7803 1.71967L20.7803 7.71967C20.921 7.86032 21 8.05109 21 8.25V15.75C21 16.9926 19.9926 18 18.75 18C18.3358 18 18 17.6642 18 17.25C18 16.8358 18.3358 16.5 18.75 16.5C19.1642 16.5 19.5 16.1642 19.5 15.75V9H15.75C14.5074 9 13.5 7.99264 13.5 6.75V3H9.75C9.33579 3 9 3.33579 9 3.75C9 4.16421 8.66421 4.5 8.25 4.5C7.83579 4.5 7.5 4.16421 7.5 3.75ZM15 4.06066L18.4393 7.5H15.75C15.3358 7.5 15 7.16421 15 6.75V4.06066Z" fill="#636AE6"/>
</svg>
